<?xml version="1.0" encoding="utf-8"?>
<!-- Generator: Adobe Illustrator 22.0.1, SVG Export Plug-In . SVG Version: 6.00 Build 0)  -->
<svg version="1.1" id="Layer_1" xmlns="http://www.w3.org/2000/svg" xmlns:xlink="http://www.w3.org/1999/xlink" x="0px" y="0px"
	 viewBox="0 0 1000 1000" style="enable-background:new 0 0 1000 1000;" xml:space="preserve">
<g>
	<path d="M855,255.9c-0.3-7.9-7.7-15-15.7-15c-49.7,0-99.3,0-149,0c-8,0-8.2,0.1-11.1-7.6c-3.9-10.6-7.2-21.4-11.4-31.9
		c-6.7-17-13-34.1-21.6-50.3c-8.7-16.4-21.8-26.8-39.5-32c-21-6.2-42.6-7.7-64.2-7.8c-24-0.1-48,0.3-72,0.9
		c-18.8,0.4-37.6-1.4-56.5-0.3c-19.5,1.1-35,9.8-47.8,23.9c-8.5,9.4-14.2,20.5-19.1,32c-8.5,20-15.6,40.6-26.1,59.8
		c-1.5,2.7-2.5,5.8-3.1,8.9c-0.7,3.5-2.1,4.6-5.8,4.6c-51-0.2-102-0.1-153-0.1c-6.6,0-13.4,6-14.2,12.4c-1.6,13.8-1.1,27.6-0.9,41.5
		c0,4.1,5.1,9.6,9.1,10.3c16,2.8,32.2,3.1,48.3,2.8c4.8-0.1,6.3,0.7,6.3,6.1c-0.2,130-0.1,260-0.1,390c0,25.5-0.6,51,1.2,76.5
		c1.6,21.8,4.3,43.5,14,63.4c10.5,21.8,26.3,37.5,51.1,41.9c11,1.9,22.2,2.4,33.4,2.4c120.3,0,240.6,0,361,0c16.8,0,33.6-0.4,50.3-3
		c31.3-4.9,52.6-21.6,62.6-52.1c7.1-21.6,9.4-44,9.5-66.5c0.3-72.2,0.1-144.3,0.1-216.5c0.1,0,0.1,0,0.2,0c0-76.5,0-153,0-229.5
		c0-13.1,0-13,13.1-11.9c13.8,1.1,27.6,1.4,41-3c2.4-0.8,4.9-1.4,6-4c1.6-3.5,3.3-6.9,3.9-10.7C857.1,279.2,855.3,267.6,855,255.9z
		 M390.2,235.9c3.1-12.3,8.5-23.7,14-35.1c2-4.2,4.7-8.1,6.1-12.5c2.2-7.2,7.4-9.3,14-10.4c19.3-3.3,38.8-3.1,58.3-2.4
		c25.6,0.8,51.3,3.1,76.9,0.8c15.5-1.4,26.1,4.2,32.7,18.6c6.1,13.3,12.3,26.5,16.4,40.6c1.2,4,0.9,5.6-4.2,5.6
		c-35.1-0.3-70.3-0.1-105.4-0.1c-35,0-70-0.1-104.9,0.1C389.4,241,389.3,239.4,390.2,235.9z M724.2,794
		c-1.1,10.7-7.6,18.2-13.5,26.2c-1.2,1.6-3.1,0.8-4.7,0.8c-27.7,0-55.3,0-83,0c-109.7,0-219.3-0.1-329,0.1c-6.3,0-9.6-2.7-12-7.7
		c-4.8-10.1-6-21.1-7-32c-1.7-18.1-1.2-36.3-1-54.5c1.7-137.7,0.3-275.3,0.6-413c0-4.8,0.9-6.2,6.1-6.2c145.8,0.2,291.7,0.2,437.5,0
		c5.1,0,6.1,1.3,6.1,6.2c-0.2,78.5-0.1,157-0.1,235.5c0,67,0.1,134-0.1,201C724.1,765,725.7,779.4,724.2,794z"/>
	<path d="M466.9,562.4c0.2-41.2,0.1-82.3-0.8-123.5c-0.2-8.8,0.6-17.6,1.8-26.4c0.6-4.4,5.9-9.5,10.3-9.5c14.5,0,29-0.7,43.5,0.9
		c4,0.4,6.3,2.1,7.8,5.7c1.9,4.7,3.1,9.4,3.5,14.4c1.5,16.5,0.1,33-0.2,49.5c-1.4,65.1-1,130.3-0.2,195.4c0.2,15.5,0.4,31-1.4,46.4
		c-0.5,4.5-2.5,6.4-6.4,7.5c-13.9,4-28,4-42.1,2.6c-12.3-1.3-14-3.1-16.2-15.7c-1.4-8.4-1.7-16.9-1.3-25.4
		C467.3,643.7,467,603.1,466.9,562.4z"/>
	<path d="M338.1,564.5c0-44.5,0.2-89-1-133.5c-0.2-9,0.4-18,6.4-25.6c1.2-1.5,2.3-2.5,4.5-2.4c15,0.2,30-0.6,45,1
		c4,0.4,6.3,2.1,7.9,5.6c3.3,7.3,3.8,15.1,4,22.9c0.5,14-0.6,28-0.8,42c-1.3,69.5-0.9,139,0,208.5c0.1,11.3-0.1,22.6-1.7,33.9
		c-0.5,3.2-2,4.5-4.7,5.5c-6,2.2-12.3,3.2-18.6,3.6c-10.2,0.6-20.3,0.3-30.4-0.9c-4.1-0.5-6.4-2.4-8-6.1c-2.7-6.3-3.4-12.8-3.6-19.5
		c-0.6-19,1.1-38,1.1-57C338.1,616.5,338.1,590.5,338.1,564.5z"/>
	<path d="M660.9,572.5c0,46.5,0,93,0,139.5c0,7.4-1,9.1-8,11c-16.4,4.5-32.9,3.8-49.5,1.5c-3.1-0.4-3.5-2.7-4.2-4.8
		c-4-11.8-4.8-24.2-4.7-36.5c0.1-20.5,1.2-41,1.2-61.5c0.2-68.3,0.1-136.6,0.1-204.9c0-8.6,5.2-13.7,13.7-13.7
		c13.5,0,27,0.1,40.5-0.1c3.2-0.1,4.8,1.1,6,3.9c4.6,10.8,5.3,22.3,5.8,33.8c0.6,12-0.4,24-0.5,36c-0.2,32-0.1,64-0.1,96
		C661.1,572.5,661,572.5,660.9,572.5z"/>
</g>
</svg>
