<?xml version="1.0" encoding="utf-8"?>
<!-- Generator: Adobe Illustrator 22.0.1, SVG Export Plug-In . SVG Version: 6.00 Build 0)  -->
<svg version="1.1" id="Layer_1" xmlns="http://www.w3.org/2000/svg" xmlns:xlink="http://www.w3.org/1999/xlink" x="0px" y="0px"
	 viewBox="0 0 1000 1000" style="enable-background:new 0 0 1000 1000;" xml:space="preserve">
<g>
	<path d="M932.6,851.4c-46.7-76.9-93.5-153.7-140.2-230.6c-1.2-2-2.5-3.8-2.4-6.4c0.3-11,0-22,0.5-33c1.8-46.1,3.6-92.2,5.6-138.3
		c1.3-30,1-60,2.5-89.9c1.8-34.9,2.9-69.9,4.4-104.9c0.1-2.8,0-4.4-3.7-4.4c-40.5,0.2-81,0.1-121.5,0c-3.1,0-3.9,0.8-3.8,3.9
		c0.2,12,0.2,24,0,36c-0.1,3.6,0.9,4.3,4.4,4.3c25-0.2,50,0,75-0.2c3,0,4.1,0.5,3.8,3.8c-1.4,19.8-0.6,39.7-1.4,59.5
		c-2.9,72.3-6.3,144.5-7.6,216.8c-0.1,4.9-1.3,6.2-6.3,6.2C580.6,574,419.5,574,258.3,574c-0.8,0-1.7-0.1-2.5,0
		c-2.8,0.4-3.7-0.6-3.8-3.5c-0.6-17.5-1.3-35-2-52.4c-1.4-36.6-2.7-73.3-3.5-109.9c-0.8-38.5-2.9-76.9-4.6-115.4
		c-0.2-3.9,0.8-4.9,4.7-4.9c24.7,0.2,49.3-0.1,74,0.2c4.8,0.1,5.6-1.5,5.5-5.8c-0.3-11-0.3-22,0-33c0.1-4.1-0.6-5.5-5.2-5.5
		c-39.7,0.2-79.3,0.2-119,0c-4.4,0-5.3,1.3-4.9,5.3c0.6,5.5,0.7,11,0.9,16.5c1.3,48.5,2.5,96.9,4.9,145.4
		c3.2,66.9,3.6,133.9,7.2,200.8c0.2,3.5-0.7,6.4-2.5,9.3c-45.4,74.6-90.8,149.2-136.1,223.8c-2.3,3.8-4.6,7.6-7.2,11.9
		c290.9,0,580.9,0,871.5,0C934.5,854.7,933.6,853,932.6,851.4z M153.2,806.7c1-1.7,1.7-2.9,2.4-4.2c26.7-43.9,53.4-87.8,80-131.8
		c1.7-2.7,3.3-3.9,6.6-3.9c171.8,0.1,343.6,0.1,515.5,0.1c2.6,0,4.5,0.2,6.1,2.9c27.1,44.8,54.3,89.6,81.5,134.3
		c0.4,0.7,0.8,1.4,1.3,2.5C615.2,806.7,384.5,806.7,153.2,806.7z"/>
	<path d="M646.2,238.9c-5.5-11.9-12.4-23.2-21-33.1c-7.4-8.5-15.3-16.7-24.3-23.9c-11.8-9.5-24.5-17.2-38.3-23
		c-11.7-4.9-23.7-8.4-36.5-10.6c-35.9-6-69.7-0.2-101.8,15.7c-9.8,4.8-18.8,11.2-27.4,18.2c-17.9,14.8-32.2,32.4-42.5,53.4
		c-5.9,12-10.5,24.1-13.3,37.1c-3.7,17.2-5.4,34.5-3.2,52.1c2.6,20.8,8,40.9,18,59.4c7.7,14.2,17.2,27.3,29,38.6
		c6.2,5.9,12.2,12.6,19.5,16.6c5.9,3.3,5.5,7.2,5.5,12c0,10,0,20,0,30c0,2.8,1.1,4.8,2.6,7.2c4,6.2,9.7,7.3,16.3,7.3
		c23.3,0,46.7,0,70,0c23.5,0,47,0,70.5,0c13.2,0,19.6-6.4,19.6-19.5c0-10,0.1-20,0-30c0-2.3,0.4-4,2.6-5.4
		c13.5-8.4,24.5-19.6,34.3-31.7c9.1-11.2,16.4-23.5,22.2-36.9c5-11.6,8.7-23.6,10.9-36C664.9,302.8,660.5,270,646.2,238.9z
		 M628.7,332.2c-2,10.5-5.1,20.6-9.4,30.2c-3,6.7-6.8,13.1-11,19.3c-7.7,11.4-17,21.1-27.7,29.6c-3,2.3-5.8,5-9.1,6.8
		c-3.1,1.6-3.5,3.8-3.5,6.8c0.1,11.8-0.2,23.7,0.2,35.5c0.1,4.1-1.3,4.8-5,4.7c-21-0.2-42-0.1-63-0.1c-20.8,0-41.7-0.1-62.5,0.1
		c-4.1,0-4.8-1.3-4.7-5c0.2-12.2,0.1-24.3,0.1-36.5c0-2.1-0.5-3.4-2.3-4.9c-5-4.1-10.5-7.5-15.5-11.7c-9.9-8.4-18.6-18.1-25.1-29
		c-16.4-27.7-24.2-57.7-18.2-90c1.9-10.5,4.7-20.9,9-30.9c5.8-13.7,13.8-25.8,23.6-36.6c8.7-9.7,18.8-17.8,30.4-24.2
		c5.9-3.3,11.9-6.5,18.1-8.9c25.8-9.9,52.1-12.1,79.2-5.1c13.6,3.5,26.3,8.8,38,16.1c11.4,7.1,21.5,16,30.3,26.5
		c7.1,8.5,13.3,17.7,17.8,27.7C629.8,277.9,634,304.4,628.7,332.2z"/>
	<path d="M439.1,279c11,0,19.9,9,19.9,20.1c0,11-9.1,19.9-20.1,19.9c-11,0-19.9-9.1-19.9-20.1C419.1,287.9,428.1,279,439.1,279z"/>
	<path d="M559.1,279c11,0,20,9,19.9,20c0,11-9,20-20.1,19.9c-11,0-19.9-9-19.9-20C539,287.9,548,279,559.1,279z"/>
	<path d="M518.9,370.9c-13.2,0-25.7,0-38.8,0c6.5-11,12.8-21.7,19.4-32.9C506,349,512.3,359.6,518.9,370.9z"/>
</g>
</svg>
