<?xml version="1.0" encoding="utf-8"?>
<!-- Generator: Adobe Illustrator 22.0.1, SVG Export Plug-In . SVG Version: 6.00 Build 0)  -->
<svg version="1.1" id="Layer_1" xmlns="http://www.w3.org/2000/svg" xmlns:xlink="http://www.w3.org/1999/xlink" x="0px" y="0px"
	 viewBox="0 0 1000 1000" style="enable-background:new 0 0 1000 1000;" xml:space="preserve">
<g>
	<path d="M405.2,499.9c-3-2.3-4.9-3.5-6.4-5C335.4,431.6,272,368.2,208.6,304.8c-12-12-16.8-26-11.4-42.3c2-6.1,6-12,10.4-16.7
		c11.9-12.8,24.6-24.9,37-37.3c18.3-18.2,41.9-18.2,60.2,0c63.4,63.4,126.8,126.8,190.2,190.2c1.5,1.5,2.7,3.3,4.5,5.5
		c2.1-2,3.5-3.3,4.9-4.7c63.6-63.6,127.3-127.3,190.9-190.9c14-14,31.9-17.7,47.8-9.4c4.5,2.3,8.6,5.7,12.3,9.3
		c12.2,11.8,24.1,24,36.1,36c18.2,18.3,18.3,41.9,0.1,60.2C728.2,368,664.9,431.3,601.6,494.5c-1.6,1.6-3.5,3-5.8,4.9
		c1.9,2,3.2,3.4,4.6,4.8c63,63,126.1,126.1,189.1,189.1c19.5,19.5,19.5,42.5,0,62c-11.8,11.8-23.5,23.6-35.4,35.3
		c-18.1,17.9-41.8,17.9-59.8-0.1C631.1,727.3,567.8,664,504.6,600.7c-1.4-1.4-2.3-3.3-3.4-4.9c-0.8-0.1-1.6-0.2-2.4-0.3
		c-1.2,1.8-2.1,3.9-3.6,5.4c-63.1,63.2-126.3,126.4-189.5,189.5c-13.9,13.9-31.4,17.5-47.4,9.4c-4.5-2.3-8.7-5.6-12.3-9.1
		c-12.6-12.2-24.9-24.6-37.2-37.1c-17.2-17.3-17.2-41.4,0.2-58.8c63.2-63.3,126.5-126.6,189.8-189.8
		C400.3,503.5,402.2,502.4,405.2,499.9z"/>
</g>
</svg>
