<?xml version="1.0" encoding="utf-8"?>
<!-- Generator: Adobe Illustrator 22.0.1, SVG Export Plug-In . SVG Version: 6.00 Build 0)  -->
<svg version="1.1" id="Layer_1" xmlns="http://www.w3.org/2000/svg" xmlns:xlink="http://www.w3.org/1999/xlink" x="0px" y="0px"
	 viewBox="0 0 1000 1000" style="enable-background:new 0 0 1000 1000;" xml:space="preserve">
<g>
	<path d="M500.5,790c-128.3,0-256.6,0-384.9,0c-16,0-23.5-7.6-23.5-23.6c0-178,0-356,0-533.9c0-16,7.6-23.5,23.6-23.5
		c256.6,0,513.3,0,769.9,0c16,0,23.5,7.6,23.5,23.6c0,178,0,356,0,533.9c0,16-7.6,23.5-23.6,23.5C757.1,790,628.8,790,500.5,790z
		 M858.8,259.3c-239.1,0-477.8,0-716.4,0c0,160.4,0,320.4,0,480.4c239,0,477.6,0,716.4,0C858.8,579.6,858.8,419.6,858.8,259.3z"/>
	<path d="M343,500.3c-0.1,35.9-29.5,64.9-65.5,64.7c-35.7-0.2-64.6-29.4-64.5-65.3c0.1-35.9,29.5-64.9,65.5-64.7
		C314.2,435.2,343.1,464.4,343,500.3z"/>
	<path d="M499.8,565c-35.9-0.1-65-29.4-64.8-65.4c0.1-35.7,29.4-64.6,65.2-64.6c35.9,0.1,65,29.4,64.8,65.4
		C564.9,536.1,535.6,565.1,499.8,565z"/>
	<path d="M721.7,565c-35.9-0.1-64.9-29.5-64.7-65.5c0.2-35.6,29.5-64.6,65.3-64.5c35.9,0.1,64.9,29.5,64.7,65.5
		C786.8,536.2,757.5,565.1,721.7,565z"/>
</g>
</svg>
