<?xml version="1.0" encoding="utf-8"?>
<!-- Generator: Adobe Illustrator 22.0.1, SVG Export Plug-In . SVG Version: 6.00 Build 0)  -->
<svg version="1.1" id="Layer_1" xmlns="http://www.w3.org/2000/svg" xmlns:xlink="http://www.w3.org/1999/xlink" x="0px" y="0px"
	 viewBox="0 0 1000 1000" style="enable-background:new 0 0 1000 1000;" xml:space="preserve">
<g>
	<path d="M82,894.6c0-17.3-0.2-34.3,0.2-51.3c0.1-2.6,2.2-5.3,3.8-7.8c7.6-12.1,15.4-24,23-36.1c7.4-11.8,14.5-23.8,21.8-35.6
		c6.3-10,12.8-19.9,19.1-29.9c5.6-8.9,10.9-17.9,16.4-26.7c5.9-9.5,12-18.9,17.9-28.4c6.2-9.8,12.2-19.7,18.4-29.5
		c2.5-3.9,4.3-8.7,7.7-11.4c3.8-3,9.1-4.2,13.9-5.8c3.1-1,6.5-1.3,9.6-2.1c16.1-4.2,32.3-8.5,48.4-12.6c12.9-3.3,25.9-6.6,38.9-9.9
		c14.4-3.7,28.8-7.4,43.2-11c8.4-2.1,16.9-4,26.2-6.3c-1.4-1.4-2.5-2.7-3.8-3.8c-14.4-11-27.2-23.7-37.7-38.4
		c-8.1-11.3-16.5-22.5-23.2-34.7c-6.7-12.2-11.6-25.3-16.9-38.2c-3.4-8.2-6.8-16.6-8.7-25.2c-3.6-16.6-7-33.3-9-50.1
		c-1.8-15-2-30.2-2.1-45.2c0-10.4,1.5-20.8,2.3-31.5c-6.2,0-12.7,0-19.9,0c5.3-21.2,10.4-41.8,15.7-63c5.6,0,11-0.2,16.5,0.1
		c3,0.2,3.9-1.3,4.9-3.7c4.7-11,9.1-22.1,14.4-32.7c4.9-9.7,10.4-19.2,16.4-28.3c4.1-6.3,9.2-11.9,14.1-17.6
		c5.1-5.9,10-12,15.7-17.2c9.4-8.5,19.3-16.5,29.4-24.2c5.3-4,11.2-7.3,17-10.6c16.9-9.4,34.8-16.5,54.2-18.7
		c11.8-1.4,23.8-3,35.7-2.8c14.6,0.2,28.9,2.7,43,6.8c17,4.9,32.8,12.4,47.7,21.6c8.5,5.3,16.3,11.7,23.8,18.3
		c8.2,7.1,16.3,14.5,23.3,22.7c8.2,9.7,15.4,20.3,22.5,30.9c5,7.4,9.4,15.3,13.3,23.4c4.4,9.1,8,18.6,11.8,28
		c1.1,2.8,2.2,4.4,5.6,4.1c5.1-0.3,10.3-0.1,16-0.1c5.2,21,10.4,41.7,15.7,63c-7.2,0-13.6,0-19.1,0c0.6,17.6,1.9,34.8,1.5,52
		c-0.3,13.9-1.9,27.8-4.3,41.5c-2.8,16-6.4,32-10.9,47.6c-3,10.5-7.6,20.7-12.3,30.6c-5.5,11.6-10.8,23.4-17.9,33.9
		c-8.6,12.8-18.4,24.9-28.8,36.4c-7.4,8.3-16.5,15.1-24.9,22.6c-0.7,0.6-1.2,1.4-2.1,2.6c16.4,4,32.3,7.9,48.2,11.9
		c8.8,2.2,17.6,4.7,26.4,6.9c18.4,4.7,36.8,9.2,55.2,13.9c10.4,2.7,20.7,5.5,31.1,8.3c4.6,1.2,9.4,1.9,13.9,3.6c2.7,1,5.5,3.1,7,5.4
		c7.7,12,14.9,24.3,22.5,36.3c8,12.7,16.4,25,24.4,37.7c9,14.3,17.5,28.8,26.4,43.1c7.9,12.7,16.3,25.1,24.3,37.7
		c5.5,8.7,10.8,17.6,16.1,26.4c3.9,6.3,7.8,12.5,11.6,18.8c0.6,1.1,1.2,2.4,1.2,3.6c0.1,16.8,0.1,33.6,0.1,50.8
		C639.4,894.6,361,894.6,82,894.6z M663.5,422.3c-109.4,0-217.7,0-326.2,0c2.9,17.4,8.7,33.6,15.4,49.5c2.1,5,4.5,9.8,7.2,14.5
		c5.4,9.5,10.2,19.5,16.7,28.2c7.1,9.5,15.3,18.4,23.9,26.6c7.7,7.4,16.4,13.9,25,20.2c14.4,10.6,30.7,17.3,48.3,20.2
		c10.6,1.7,21.5,3.3,32.1,2.9c13.2-0.5,26.4-2.5,38.7-8.1c4.8-2.2,10-3.3,14.7-5.7c6.7-3.4,13.6-6.8,19.4-11.5
		c9.3-7.4,18.2-15.4,26.6-23.8c6.8-6.8,13.5-14,18.9-22c7-10.2,13.2-21.1,18.6-32.2c4.9-10.3,8.5-21.2,12.3-32
		C658.2,440.5,660.7,431.5,663.5,422.3z M665.7,323.3c-110.7,0-221.1,0-331.5,0c-1,11.7-1.9,23-2.9,34.4c112.8,0,224.8,0,337.3,0
		C667.7,346.1,666.7,334.9,665.7,323.3z M441,390c1.4-12-10.7-24.2-23.9-24c-14.8,0.2-24.9,10.4-24.8,24
		c0.1,14.9,9.1,24.2,24.6,24.8C429.8,415.3,442.2,404,441,390z M583.2,366c-13.6-0.1-23.3,10.9-24.2,21.2
		c-1.6,17.2,11,27.8,23.9,27.5c14.9-0.3,24-8.8,24.8-24.2C608.3,378.6,599.1,366.2,583.2,366z M325.3,274.2c0,11.8,0,23.2,0,34.6
		c2.9,0,5.5,0,8.4,0c0-11.6,0-23,0-34.6C330.9,274.2,328.3,274.2,325.3,274.2z M356.3,274.2c0,11.8,0,23.2,0,34.4c3.1,0,5.8,0,8.4,0
		c0-11.7,0-22.9,0-34.4C361.9,274.2,359.3,274.2,356.3,274.2z M394.7,308.8c0-11.8,0-23.2,0-34.6c-2.6,0-4.9,0-7.4,0
		c0,11.6,0,23,0,34.6C389.8,308.8,392,308.8,394.7,308.8z M425.7,308.8c0-11.8,0-23.1,0-34.4c-2.7,0-5.1,0-7.4,0
		c0,11.7,0,22.9,0,34.4C420.7,308.8,423,308.8,425.7,308.8z M449.3,274.2c0,11.8,0,23.2,0,34.6c2.6,0,4.9,0,7.4,0
		c0-11.6,0-23,0-34.6C454.2,274.2,451.9,274.2,449.3,274.2z M487.7,308.8c0-11.8,0-23.2,0-34.6c-2.6,0-4.9,0-7.4,0
		c0,11.6,0,23,0,34.6C482.8,308.8,485.1,308.8,487.7,308.8z M518.7,308.8c0-11.8,0-23.2,0-34.6c-2.6,0-4.9,0-7.4,0
		c0,11.6,0,23,0,34.6C513.8,308.8,516,308.8,518.7,308.8z M549.6,308.8c0-11.9,0-23.3,0-34.6c-2.7,0-4.9,0-7.3,0c0,11.7,0,23,0,34.6
		C544.9,308.8,547.1,308.8,549.6,308.8z M580.6,308.8c0-11.9,0-23.3,0-34.6c-2.7,0-4.9,0-7.3,0c0,11.7,0,23,0,34.6
		C575.9,308.8,578.1,308.8,580.6,308.8z M604.4,274.2c0,11.9,0,23.3,0,34.6c2.7,0,4.9,0,7.3,0c0-11.7,0-23,0-34.6
		C609.1,274.2,606.8,274.2,604.4,274.2z M635.3,274.2c0,11.8,0,23.1,0,34.4c2.7,0,5.1,0,7.4,0c0-11.7,0-22.9,0-34.4
		C640.2,274.2,638,274.2,635.3,274.2z M666.4,274.2c0,11.9,0,23.3,0,34.6c2.7,0,4.9,0,7.3,0c0-11.7,0-23,0-34.6
		C671.1,274.2,668.8,274.2,666.4,274.2z"/>
</g>
</svg>
