<?xml version="1.0" encoding="utf-8"?>
<!-- Generator: Adobe Illustrator 22.0.1, SVG Export Plug-In . SVG Version: 6.00 Build 0)  -->
<svg version="1.1" id="Layer_1" xmlns="http://www.w3.org/2000/svg" xmlns:xlink="http://www.w3.org/1999/xlink" x="0px" y="0px"
	 viewBox="0 0 1000 1000" style="enable-background:new 0 0 1000 1000;" xml:space="preserve">
<g>
	<path d="M894.5,468.5c5.4,244.9-167.8,405-350.1,422.4c-109.5,10.5-207.9-18.4-292.4-88.8c-81.5-67.9-128.7-155.8-139.5-261.2
		c-10.7-103.7,15.6-198.4,79.8-281c69.4-89.4,161.4-141,274-151.3C579,98.1,679.4,131,764.1,207
		C848.1,282.4,890.5,377.7,894.5,468.5z M508.7,458.2c0.1-0.8,0.2-1.6,0.3-2.4c1.6-21.7,3.2-43.5,4.9-65.2c2-25.4,3.8-50.8,6.2-76.2
		c0.7-7.1,5.3-13.1,11.5-16.3c17.7-9.1,36.2,5.4,35.1,24.3c-2.4,39.6-4.8,79.1-7.2,118.7c-0.1,2.1-0.4,4.7,0.6,6.3
		c1.5,2.5,4.1,4.3,6.2,6.4c1.9-2.2,5.1-4.2,5.5-6.7c2.1-12.5,3.7-25,5-37.6c1.8-17.4,3-34.8,4.6-52.2c1.4-15.2,3-30.5,4.6-45.7
		c0.9-8.3,1.9-16.6,3.1-24.8c0.3-2.4,1.2-4.8,2.4-6.9c5.2-9.9,13.6-13.2,24.5-12.2c12.3,1.1,22.3,10.6,22.5,22.7
		c0.1,5.1-0.2,10.3-0.7,15.5c-2.1,20-4.6,40-6.7,60c-2.5,23.5-4.6,47-7.1,70.5c-0.9,8.3-2.3,16.5-3.2,24.8c-0.5,4.7,2.7,9.2,6.1,9.6
		c3.5,0.4,8.1-3.4,8.9-7.9c0.9-5.1,1.6-10.2,2.1-15.3c3-28.1,5.9-56.2,8.9-84.3c1.4-12.9,2.8-25.8,4.3-38.7
		c0.9-7.4,3.7-13.7,10.4-18c10.2-6.5,20-4.3,29.7,0.8c6.3,3.3,11.4,12.8,10.1,19.4c-1.7,9.1-2.4,18.5-3.6,27.7
		c-2.6,20.1-5.1,40.2-7.9,60.3c-3.4,24.4-6.9,48.7-10.5,73c-0.5,3.3,0,6.8,3.3,7.3c2.2,0.3,5.9-1.9,7.1-4c3.1-5.7,5.4-12,7.8-18.1
		c5.7-14.4,11.4-28.8,17-43.2c2-5,3.4-10.3,5.7-15.2c2.7-5.8,3.4-13,9.7-16.7c7.7-4.6,16.7-4.1,23.4,1.2c7.2,5.6,9.6,15.5,6.6,23.2
		c-4.9,12.9-9.6,25.9-14.7,38.8c-7.3,18.7-14.8,37.3-22.2,56c-6,15.2-12.2,30.2-17.8,45.5c-3,8.4-5.2,17.1-7.2,25.9
		c-3.4,14.8-6.4,29.8-9.3,44.7c-0.3,1.8,0.2,4.4,1.4,5.6c9.1,9.2,18.5,18.1,27.7,27.3c6.6,6.5,13,13.2,19.3,19.9
		c2.9,3.1,4.8,3.3,7.3-0.3c3.7-5.2,7.1-10.6,10.8-15.7c10.5-14.7,18.9-30.6,26.2-47.2c7.2-16.2,12.6-32.9,17-50
		c5.5-21.7,8.2-43.7,8.7-66.1c0.7-32.4-2.9-64-12.7-94.9c-1.4-4.6-2.7-9.2-4.5-13.6c-4.9-12-9.5-24.1-15.2-35.8
		c-4.6-9.4-10.5-18.2-15.7-27.3c-8.8-15.3-19.7-28.9-31.9-41.6c-10.4-10.8-21.4-21-32.9-30.6c-10.6-8.8-21.8-17.2-33.6-24.4
		c-12.1-7.4-25-13.5-37.9-19.5c-9.1-4.2-18.5-8.1-28.2-10.7c-14.5-4-29.2-7-44-10.1c-26-5.4-52.4-4.3-78.6-2.5
		c-13.5,1-27,3.8-40.2,7.2c-15.3,3.9-30.6,8.5-45.3,14.1c-11.4,4.4-22.4,10.3-33,16.6c-13.9,8.3-27.2,17.6-40.6,26.6
		c-0.5,0.4-0.4,3,0.3,3.8c6.7,6.8,13.6,13.5,20.3,20.2c18.9,19,37.8,38.1,56.8,57c14,13.9,28.3,27.6,42.4,41.5
		c13,12.7,25.8,25.6,38.7,38.4C483.9,433.6,496.2,445.8,508.7,458.2z M381.1,489c-1.6-2.8-3.6-4.8-3.9-7
		c-1.9-12.8-6.4-24.5-13.1-35.5c-6.1-10.1-14.5-17.6-25.3-21.9c-14.6-5.9-29.6-2.9-44.1,0.6c-11,2.6-20.9,8.1-28.7,16.4
		c-5.9,6.3-11.6,12.9-11.9,22.6c-0.4,10.5-1.5,20.9-2.7,31.4c-0.3,2.2-2.1,4.4-3.6,6.4c-1.7,2.4-4.5,4.2-5.6,6.7
		c-3.4,7.8-3.8,16.1-2.2,24.5c1.9,10.4,3.8,12.1,14.1,13.2c0.3,0,0.5,0.4,1,0.8c1.3,13.6,2.7,27.4,4.1,41.7c-16.3,0-31.8,0-47.9,0
		c0.9,3.2,1.4,5.9,2.3,8.5c2.3,6,4.5,12.1,7.3,17.9c7.3,15.2,13.9,30.9,22.5,45.4c7.8,13,17.2,25.1,27.1,36.7
		c9.6,11.3,20.5,21.4,31,31.9c1.1,1.1,3.9,1.4,5.4,0.9c1.8-0.6,3.2-2.6,4.7-4c10.9-9.7,21.4-19.9,32.8-29
		c15.8-12.6,32.1-24.5,48.4-36.3c3.1-2.3,7.4-4.2,11.1-4.3c8.8-0.3,17.7,0.1,26.4,1.3c15,2,29.9,4.8,44.8,7.2c0.5,0.1,1.2-0.2,2-0.4
		c-2-6.4-3.1-13-6-18.6c-5.6-10.6-12.4-20.5-18.3-30.9c-4-7.1-7.6-14.4-11.1-21.8c-3-6.4-4.5-7.7-11.7-7.7c-18.7,0-37.3,0.3-56-0.2
		c-5.4-0.1-7.4,2.4-9.8,6.4c-3.7,6.2-7.4,12.4-12.2,17.7c-10.5,11.7-24.6,15.7-39.8,16.5c-2.3,0.1-4.5,0-7.2,0
		c0.3-3.2,0.5-5.8,0.7-8.3c3.9-0.2,7.3-0.1,10.6-0.7c5.7-1.1,11.8-1.6,16.8-4.2c16.3-8.3,26.1-22.7,29.4-39.9
		c3.5-17.9,3.9-36.3,5.3-54.6c0.5-6.9,0.1-13.9,0.1-21.3c-30.4,0-60.2,0-89.9,0c0-2.8,0-5.1,0-7.9C312.3,489,346.4,489,381.1,489z
		 M647.2,689.5c-3.6,3.2-6.4,6.4-9.9,8.7c-8.4,5.5-16.5,12.2-25.8,15.3c-20.1,6.7-40.8,3.7-61.1-0.3c-8.7-1.7-17-5.2-25.6-7.8
		c-16.1-4.9-28.2-15.3-39.1-27.6c-1.2-1.3-3-2.4-4.8-2.8c-9.8-1.9-19.6-3.9-29.4-5.1c-14.8-1.9-29.7-3.5-44.6-4.8
		c-3.2-0.3-7.1,0.9-9.7,2.7c-16.1,12-32,24.1-47.6,36.6c-12.5,10-24.5,20.6-36.6,31c-0.6,0.5-0.3,2.9,0.4,3.6c2.3,2.2,5,4.2,7.7,6
		c12.2,8,24.1,16.7,36.9,23.7c17.6,9.7,36,18.1,55.7,23c14.9,3.7,29.9,7,45,10.3c5.2,1.1,10.5,1.9,15.8,2c17.8,0.2,35.6,0.5,53.4,0
		c20-0.6,39.5-4.8,58.6-10.4c10-2.9,19.9-6.3,29.4-10.3c11.9-5.1,23.7-10.8,35.1-16.8c7.9-4.2,15.4-9.3,22.9-14.2
		c6.5-4.3,12.9-9,19.2-13.7c0.5-0.3,0.1-2.7-0.6-3.4c-6.6-6.7-13.5-13.3-20.2-20C664,706.6,655.7,698.1,647.2,689.5z M247.2,554.7
		c-0.4,0.2-0.9,0.4-1.3,0.6c-3-2.4-6.6-4.4-8.8-7.4c-7.6-10-7.3-21.8-5.5-33.3c0.7-4.7,2.6-10,5.8-13.3c5.7-6,6.3-13,6.7-20.3
		c0.3-5.2,1.3-10.3,1.3-15.4c0.1-14.6,8.2-24.8,18.4-33.5c12.6-10.8,27.7-16.1,44.2-18.1c10.8-1.3,21.4-1.5,31.5,1.9
		c14.3,4.8,25.2,14.7,32.8,27.5c6.3,10.5,10.3,22.1,12.7,34.2c0.7,3.6,2.1,6.5,6,7.8c1.2,0.4,2.4,2.4,2.6,3.8
		c0.4,2.5,0.1,5.2,0.1,8.2c-5.9,0-11.2,0-15.7,0c-2,26.8-4.1,53.1-6.1,79.4c19.8,0,40.5,0,61.7,0c-2.2-3.5-3.9-6.6-5.9-9.5
		c-10.9-14.7-22.1-29.2-32.6-44.1c-8.5-12-4.7-24.5,9.1-30.4c13.9-5.9,34.7-1.3,45.9,12.7c3.9,4.8,7.8,9.7,11.5,14.7
		c8.6,11.7,16.9,23.5,25.4,35.3c2.2,3,4.1,7.9,8.3,6.4c2.8-1,4.7-5.3,6.5-8.3c0.9-1.5,0.8-3.5,0.9-5.4c0-0.9-0.3-2-0.9-2.6
		c-9.1-9-18.4-17.9-27.5-26.9c-8-7.9-15.7-16-23.6-23.9c-7.7-7.8-15.5-15.6-23.4-23.3c-6.7-6.6-13.6-12.9-20.2-19.5
		c-7.6-7.6-15-15.5-22.6-23.1c-9.8-9.8-19.9-19.4-29.8-29.2c-7.6-7.5-15-15.3-22.6-22.8c-6.7-6.6-13.5-13-20.2-19.7
		c-6.4-6.4-12.7-13-19.1-19.4c-6.6-6.6-13.7-12.7-19.9-19.6c-7.9-8.9-7.6-9.1-15.1-0.1c-0.2,0.3-0.4,0.5-0.6,0.8
		c-6.4,9.5-13.5,18.6-19,28.6c-7.1,13.1-13.3,26.7-19.1,40.4c-4.3,10.3-8.1,21-10.9,31.8c-5.6,21.2-10,42.7-9.9,64.8
		c0.1,17.6,0,35.3,1.6,52.9c1.3,14.4,5,28.6,7.6,42.8c14.6,0,28.1,0,42,0C248.9,571.2,248.1,562.9,247.2,554.7z"/>
	<path d="M327.7,545c10,0,16.7,5.7,21.1,18.1c4.4,12.6,0.4,28.3-11.2,36.8c-6.6,4.9-20.8,2.2-25.6-4.6c-8.3-11.9-9.8-24.4-3.7-37.5
		C311.4,551.4,318.7,543.7,327.7,545z M343.1,573.9c-1.8-4.8-3.3-9-5-13c-2-4.8-5.7-7.2-11-7.2c-5.4,0-8.7,3.2-10.8,7.3
		c-4.3,8.3-4.6,17.2,0,25.3c4.6,8,13.5,11.6,20.5,2.4C339.9,584.5,341,578.9,343.1,573.9z"/>
</g>
</svg>
