<?xml version="1.0" encoding="utf-8"?>
<!-- Generator: Adobe Illustrator 22.0.1, SVG Export Plug-In . SVG Version: 6.00 Build 0)  -->
<svg version="1.1" id="Layer_1" xmlns="http://www.w3.org/2000/svg" xmlns:xlink="http://www.w3.org/1999/xlink" x="0px" y="0px"
	 viewBox="0 0 1000 1000" style="enable-background:new 0 0 1000 1000;" xml:space="preserve">
<style type="text/css">
	.st0{display:none;}
	.st1{display:inline;}
	.st2{fill:#FDFDFD;}
	.st3{fill:#FEFEFE;}
	.st4{display:inline;fill:#FFFFFF;}
	.st5{fill:#FFFFFF;}
</style>
<g class="st0">
	<g class="st1">
		<path class="st2" d="M1001,501.5c0,165,0,330,0.1,495c0,3.7-0.8,4.6-4.6,4.6c-330.3-0.1-660.7-0.1-991,0c-3.7,0-4.6-0.8-4.6-4.6
			C1,666.2,1,335.8,0.9,5.5c0-3.7,0.8-4.6,4.6-4.6c330.3,0.1,660.7,0.1,991,0c3.7,0,4.6,0.8,4.6,4.6
			C1001,170.8,1001,336.2,1001,501.5z"/>
		<path d="M792,551c0,72.2,0.2,144.3-0.1,216.5c-0.1,22.5-2.4,44.8-9.5,66.5c-10,30.5-31.3,47.2-62.6,52.1c-16.7,2.6-33.5,3-50.3,3
			c-120.3,0-240.6,0-361,0c-11.2,0-22.3-0.4-33.4-2.4c-24.9-4.4-40.6-20.2-51.1-41.9c-9.7-20-12.4-41.6-14-63.4
			c-1.8-25.5-1.2-51-1.2-76.5c0-130,0-260,0.1-390c0-5.3-1.6-6.2-6.3-6.1c-16.2,0.4-32.3,0-48.3-2.8c-4-0.7-9.1-6.2-9.1-10.3
			c-0.1-13.8-0.6-27.7,0.9-41.5c0.7-6.4,7.5-12.4,14.2-12.4c51,0,102-0.1,153,0.1c3.7,0,5.1-1.2,5.8-4.6c0.6-3.1,1.6-6.2,3.1-8.9
			c10.5-19.2,17.6-39.7,26.1-59.8c4.9-11.5,10.6-22.6,19.1-32c12.8-14.1,28.3-22.8,47.8-23.9c18.8-1.1,37.6,0.7,56.5,0.3
			c24-0.6,48-1,72-0.9c21.7,0.1,43.2,1.7,64.2,7.8c17.7,5.2,30.8,15.6,39.5,32c8.6,16.2,14.8,33.4,21.6,50.3
			c4.2,10.5,7.4,21.3,11.4,31.9c2.9,7.7,3.1,7.6,11.1,7.6c49.7,0,99.3,0,149,0c8,0,15.4,7.1,15.7,15c0.4,11.6,2.1,23.3,0.1,34.9
			c-0.7,3.8-2.4,7.2-3.9,10.7c-1.1,2.6-3.6,3.2-6,4c-13.4,4.4-27.2,4.1-41,3c-13.1-1.1-13.1-1.2-13.1,11.9c0,76.5,0,153,0,229.5
			C792.1,551,792,551,792,551z"/>
		<path class="st3" d="M725.2,550.5c0,67,0.1,134-0.1,201c0,14.5,1.5,28.9,0,43.5c-1.1,10.7-7.6,18.2-13.5,26.2
			c-1.2,1.6-3.1,0.8-4.7,0.8c-27.7,0-55.3,0-83,0c-109.7,0-219.3-0.1-329,0.1c-6.3,0-9.6-2.7-12-7.7c-4.8-10.1-6-21.1-7-32
			c-1.7-18.1-1.2-36.3-1-54.5c1.7-137.7,0.3-275.3,0.6-413c0-4.8,0.9-6.2,6.1-6.2c145.8,0.2,291.7,0.2,437.5,0
			c5.1,0,6.1,1.3,6.1,6.2C725.2,393.5,725.2,472,725.2,550.5z"/>
		<path class="st3" d="M500,241.9c-35,0-70-0.1-104.9,0.1c-4.6,0-4.7-1.6-3.8-5.1c3.1-12.3,8.5-23.7,14-35.1c2-4.2,4.7-8.1,6.1-12.5
			c2.2-7.2,7.4-9.3,14-10.4c19.3-3.3,38.8-3.1,58.3-2.4c25.6,0.8,51.3,3.1,76.9,0.8c15.5-1.4,26.1,4.2,32.7,18.6
			c6.1,13.3,12.3,26.5,16.4,40.6c1.2,4,0.9,5.6-4.2,5.6C570.3,241.8,535.1,241.9,500,241.9z"/>
		<path d="M467.9,563.4c0.2-41.2,0.1-82.3-0.8-123.5c-0.2-8.8,0.6-17.6,1.8-26.4c0.6-4.4,5.9-9.5,10.3-9.5c14.5,0,29-0.7,43.5,0.9
			c4,0.4,6.3,2.1,7.8,5.7c1.9,4.7,3.1,9.4,3.5,14.4c1.5,16.5,0.1,33-0.2,49.5c-1.4,65.1-1,130.3-0.2,195.4c0.2,15.5,0.4,31-1.4,46.4
			c-0.5,4.5-2.5,6.4-6.4,7.5c-13.9,4-28,4-42.1,2.6c-12.3-1.3-14-3.1-16.2-15.7c-1.4-8.4-1.7-16.9-1.3-25.4
			C468.3,644.7,468,604.1,467.9,563.4z"/>
		<path d="M339.1,565.5c0-44.5,0.2-89-1-133.5c-0.2-9,0.4-18,6.4-25.6c1.2-1.5,2.3-2.5,4.5-2.4c15,0.2,30-0.6,45,1
			c4,0.4,6.3,2.1,7.9,5.6c3.3,7.3,3.8,15.1,4,22.9c0.5,14-0.6,28-0.8,42c-1.3,69.5-0.9,139,0,208.5c0.1,11.3-0.1,22.6-1.7,33.9
			c-0.5,3.2-2,4.5-4.7,5.5c-6,2.2-12.3,3.2-18.6,3.6c-10.2,0.6-20.3,0.3-30.4-0.9c-4.1-0.5-6.4-2.4-8-6.1
			c-2.7-6.3-3.4-12.8-3.6-19.5c-0.6-19,1.1-38,1.1-57C339.1,617.5,339.1,591.5,339.1,565.5z"/>
		<path d="M661.9,573.5c0,46.5,0,93,0,139.5c0,7.4-1,9.1-8,11c-16.4,4.5-32.9,3.8-49.5,1.5c-3.1-0.4-3.5-2.7-4.2-4.8
			c-4-11.8-4.8-24.2-4.7-36.5c0.1-20.5,1.2-41,1.2-61.5c0.2-68.3,0.1-136.6,0.1-204.9c0-8.6,5.2-13.7,13.7-13.7
			c13.5,0,27,0.1,40.5-0.1c3.2-0.1,4.8,1.1,6,3.9c4.6,10.8,5.3,22.3,5.8,33.8c0.6,12-0.4,24-0.5,36c-0.2,32-0.1,64-0.1,96
			C662.1,573.5,662,573.5,661.9,573.5z"/>
	</g>
</g>
<g class="st0">
	<g class="st1">
		<path class="st2" d="M500.5,1001c-165,0-330,0-495,0.1c-3.7,0-4.6-0.8-4.6-4.6C1,666.2,1,335.8,0.9,5.5c0-3.7,0.8-4.6,4.6-4.6
			c330.3,0.1,660.7,0.1,991,0c3.7,0,4.6,0.8,4.6,4.6c-0.1,330.3-0.1,660.7,0,991c0,3.7-0.8,4.6-4.6,4.6
			C831.2,1001,665.8,1001,500.5,1001z"/>
		<path d="M65.2,855.8c2.6-4.3,4.8-8.1,7.2-11.9c45.4-74.6,90.7-149.2,136.1-223.8c1.8-3,2.7-5.8,2.5-9.3
			c-3.6-66.9-3.9-133.9-7.2-200.8c-2.3-48.4-3.6-96.9-4.9-145.4c-0.1-5.5-0.3-11-0.9-16.5c-0.4-4,0.4-5.3,4.9-5.3
			c39.7,0.2,79.3,0.2,119,0c4.7,0,5.3,1.4,5.2,5.5c-0.3,11-0.3,22,0,33c0.1,4.3-0.7,5.8-5.5,5.8c-24.7-0.3-49.3,0-74-0.2
			c-4,0-4.9,1-4.7,4.9c1.7,38.4,3.8,76.9,4.6,115.4c0.8,36.7,2.1,73.3,3.5,109.9c0.7,17.5,1.5,35,2,52.4c0.1,2.9,1,3.9,3.8,3.5
			c0.8-0.1,1.7,0,2.5,0c161.1,0,322.3,0,483.4,0.1c5,0,6.2-1.2,6.3-6.2c1.3-72.3,4.7-144.5,7.6-216.8c0.8-19.8,0.1-39.7,1.4-59.5
			c0.2-3.3-0.9-3.8-3.8-3.8c-25,0.1-50,0-75,0.2c-3.5,0-4.5-0.7-4.4-4.3c0.2-12,0.2-24,0-36c0-3.1,0.7-3.9,3.8-3.9
			c40.5,0.1,81,0.1,121.5,0c3.8,0,3.8,1.5,3.7,4.4c-1.5,35-2.5,69.9-4.4,104.9c-1.6,30-1.2,60-2.5,89.9c-2,46.1-3.9,92.2-5.6,138.3
			c-0.4,11-0.2,22-0.5,33c-0.1,2.6,1.3,4.4,2.4,6.4c46.7,76.9,93.5,153.7,140.2,230.6c1,1.7,2,3.3,3.2,5.4
			C646.1,855.8,356.1,855.8,65.2,855.8z"/>
		<path d="M499.9,495c-23.3,0-46.7,0-70,0c-6.5,0-12.3-1.1-16.3-7.3c-1.5-2.4-2.6-4.4-2.6-7.2c0.1-10,0-20,0-30
			c0-4.8,0.4-8.7-5.5-12c-7.3-4.1-13.3-10.7-19.5-16.6c-11.7-11.2-21.2-24.4-29-38.6c-10-18.5-15.5-38.5-18-59.4
			c-2.2-17.6-0.5-34.9,3.2-52.1c2.8-13,7.4-25.1,13.3-37.1c10.4-21,24.6-38.6,42.5-53.4c8.5-7,17.6-13.4,27.4-18.2
			c32.2-16,65.9-21.7,101.8-15.7c12.7,2.1,24.8,5.7,36.5,10.6c13.8,5.8,26.5,13.5,38.3,23c9,7.2,16.9,15.3,24.3,23.9
			c8.6,9.9,15.6,21.2,21,33.1c14.3,31.1,18.7,63.9,12.8,97.6c-2.2,12.3-5.9,24.3-10.9,36c-5.8,13.4-13.1,25.7-22.2,36.9
			c-9.9,12.1-20.9,23.4-34.3,31.7c-2.2,1.4-2.6,3-2.6,5.4c0.1,10,0.1,20,0,30c0,13.1-6.4,19.5-19.6,19.5
			C546.9,495,523.4,495,499.9,495z"/>
		<path class="st3" d="M847.7,805.7c-231.5,0-462.2,0-693.5,0c1-1.7,1.7-2.9,2.4-4.2c26.7-43.9,53.4-87.8,80-131.8
			c1.7-2.7,3.3-3.9,6.6-3.9c171.8,0.1,343.6,0.1,515.5,0.1c2.6,0,4.5,0.2,6.1,2.9c27.1,44.8,54.3,89.6,81.5,134.3
			C846.8,803.9,847.1,804.6,847.7,805.7z"/>
		<path class="st3" d="M501.1,464c-20.8,0-41.7-0.1-62.5,0.1c-4.1,0-4.8-1.3-4.7-5c0.2-12.2,0.1-24.3,0.1-36.5
			c0-2.1-0.5-3.4-2.3-4.9c-5-4.1-10.5-7.5-15.5-11.7c-9.9-8.4-18.6-18.1-25.1-29c-16.4-27.7-24.2-57.7-18.2-90
			c1.9-10.5,4.7-20.9,9-30.9c5.8-13.7,13.8-25.8,23.6-36.6c8.7-9.7,18.8-17.8,30.4-24.2c5.9-3.3,11.9-6.5,18.1-8.9
			c25.8-9.9,52.1-12.1,79.2-5.1c13.6,3.5,26.3,8.8,38,16.1c11.4,7.1,21.5,16,30.3,26.5c7.1,8.5,13.3,17.7,17.8,27.7
			c11.5,25.4,15.6,51.9,10.3,79.7c-2,10.5-5.1,20.6-9.4,30.2c-3,6.7-6.8,13.1-11,19.3c-7.7,11.4-17,21.1-27.7,29.6
			c-3,2.3-5.8,5-9.1,6.8c-3.1,1.6-3.5,3.8-3.5,6.8c0.1,11.8-0.2,23.7,0.2,35.5c0.1,4.1-1.3,4.8-5,4.7
			C543.1,463.9,522.1,464,501.1,464z"/>
		<path d="M440.1,278c11,0,19.9,9,19.9,20.1c0,11-9.1,19.9-20.1,19.9c-11,0-19.9-9.1-19.9-20.1C420.1,286.9,429.1,278,440.1,278z"/>
		<path d="M560.1,278c11,0,20,9,19.9,20c0,11-9,20-20.1,19.9c-11,0-19.9-9-19.9-20C540,286.9,549,278,560.1,278z"/>
		<path d="M519.9,369.9c-13.2,0-25.7,0-38.8,0c6.5-11,12.8-21.7,19.4-32.9C507,348,513.3,358.6,519.9,369.9z"/>
	</g>
</g>
<g class="st0">
	<path class="st4" d="M1001,1001c-333.3,0-666.7,0-1000,0C1,667.7,1,334.3,1,1c333.3,0,666.7,0,1000,0
		C1001,334.3,1001,667.7,1001,1001z M406.2,500.9c-3.1,2.4-4.9,3.6-6.4,5.1c-63.3,63.3-126.6,126.5-189.8,189.8
		c-17.3,17.3-17.3,41.5-0.2,58.8c12.3,12.4,24.6,24.9,37.2,37.1c3.7,3.5,7.8,6.9,12.3,9.1c16,8.1,33.5,4.4,47.4-9.4
		c63.2-63.1,126.3-126.3,189.5-189.5c1.5-1.5,2.4-3.6,3.6-5.4c0.8,0.1,1.6,0.2,2.4,0.3c1.1,1.6,2,3.5,3.4,4.9
		c63.2,63.3,126.5,126.6,189.8,189.9c18.1,18,41.7,18,59.8,0.1c11.8-11.7,23.6-23.6,35.4-35.3c19.4-19.5,19.4-42.5,0-62
		c-63-63-126.1-126.1-189.1-189.1c-1.4-1.4-2.7-2.8-4.6-4.8c2.2-1.9,4.1-3.3,5.8-4.9c63.3-63.3,126.6-126.5,189.8-189.8
		c18.2-18.2,18.2-41.9-0.1-60.2c-12-12-23.9-24.2-36.1-36c-3.7-3.6-7.8-6.9-12.3-9.3c-16-8.3-33.9-4.6-47.8,9.4
		c-63.6,63.6-127.3,127.3-190.9,190.9c-1.4,1.4-2.8,2.7-4.9,4.7c-1.7-2.1-2.9-3.9-4.5-5.5c-63.4-63.4-126.8-126.8-190.2-190.2
		c-18.3-18.2-41.9-18.2-60.2,0c-12.4,12.3-25,24.5-37,37.3c-4.4,4.7-8.3,10.6-10.4,16.7c-5.5,16.3-0.6,30.3,11.4,42.3
		C273,369.2,336.4,432.6,399.8,496C401.3,497.5,403.2,498.6,406.2,500.9z"/>
	<path class="st1" d="M406.2,500.9c-3-2.3-4.9-3.5-6.4-5C336.4,432.6,273,369.2,209.6,305.8c-12-12-16.8-26-11.4-42.3
		c2-6.1,6-12,10.4-16.7c11.9-12.8,24.6-24.9,37-37.3c18.3-18.2,41.9-18.2,60.2,0c63.4,63.4,126.8,126.8,190.2,190.2
		c1.5,1.5,2.7,3.3,4.5,5.5c2.1-2,3.5-3.3,4.9-4.7c63.6-63.6,127.3-127.3,190.9-190.9c14-14,31.9-17.7,47.8-9.4
		c4.5,2.3,8.6,5.7,12.3,9.3c12.2,11.8,24.1,24,36.1,36c18.2,18.3,18.3,41.9,0.1,60.2C729.2,369,665.9,432.3,602.6,495.5
		c-1.6,1.6-3.5,3-5.8,4.9c1.9,2,3.2,3.4,4.6,4.8c63,63,126.1,126.1,189.1,189.1c19.5,19.5,19.5,42.5,0,62
		c-11.8,11.8-23.5,23.6-35.4,35.3c-18.1,17.9-41.8,17.9-59.8-0.1C632.1,728.3,568.8,665,505.6,601.7c-1.4-1.4-2.3-3.3-3.4-4.9
		c-0.8-0.1-1.6-0.2-2.4-0.3c-1.2,1.8-2.1,3.9-3.6,5.4c-63.1,63.2-126.3,126.4-189.5,189.5c-13.9,13.9-31.4,17.5-47.4,9.4
		c-4.5-2.3-8.7-5.6-12.3-9.1c-12.6-12.2-24.9-24.6-37.2-37.1c-17.2-17.3-17.2-41.4,0.2-58.8c63.2-63.3,126.5-126.6,189.8-189.8
		C401.3,504.5,403.2,503.4,406.2,500.9z"/>
</g>
<g class="st0">
	<g class="st1">
		<path class="st5" d="M1001,1001c-333.3,0-666.7,0-1000,0C1,667.7,1,334.3,1,1c333.3,0,666.7,0,1000,0
			C1001,334.3,1001,667.7,1001,1001z M503.5,791c128.3,0,256.6,0,384.9,0c16,0,23.6-7.5,23.6-23.5c0-178,0-356,0-533.9
			c0-16-7.6-23.6-23.5-23.6c-256.6,0-513.3,0-769.9,0c-16,0-23.6,7.5-23.6,23.5c0,178,0,356,0,533.9c0,16,7.5,23.6,23.5,23.6
			C246.8,791,375.2,791,503.5,791z"/>
		<path d="M503.5,791c-128.3,0-256.6,0-384.9,0c-16,0-23.5-7.6-23.5-23.6c0-178,0-356,0-533.9c0-16,7.6-23.5,23.6-23.5
			c256.6,0,513.3,0,769.9,0c16,0,23.5,7.6,23.5,23.6c0,178,0,356,0,533.9c0,16-7.6,23.5-23.6,23.5C760.1,791,631.8,791,503.5,791z
			 M861.8,260.3c-239.1,0-477.8,0-716.4,0c0,160.4,0,320.4,0,480.4c239,0,477.6,0,716.4,0C861.8,580.6,861.8,420.6,861.8,260.3z"/>
		<path class="st5" d="M861.8,260.3c0,160.3,0,320.2,0,480.4c-238.8,0-477.4,0-716.4,0c0-160,0-320,0-480.4
			C384,260.3,622.7,260.3,861.8,260.3z M346,501.3c0.1-35.8-28.8-65.1-64.5-65.3c-36.1-0.2-65.4,28.8-65.5,64.7
			c-0.1,35.8,28.8,65.1,64.5,65.3C316.5,566.2,345.9,537.2,346,501.3z M502.8,566c35.8,0.1,65-28.9,65.2-64.6
			c0.1-36-28.9-65.4-64.8-65.4c-35.8-0.1-65,28.9-65.2,64.6C437.9,536.6,466.9,565.9,502.8,566z M724.7,566
			c35.8,0.1,65.1-28.8,65.3-64.5c0.2-36.1-28.8-65.4-64.7-65.5c-35.8-0.1-65.1,28.8-65.3,64.5C659.8,536.5,688.8,565.9,724.7,566z"
			/>
		<path d="M346,501.3c-0.1,35.9-29.5,64.9-65.5,64.7c-35.7-0.2-64.6-29.4-64.5-65.3c0.1-35.9,29.5-64.9,65.5-64.7
			C317.2,436.2,346.1,465.4,346,501.3z"/>
		<path d="M502.8,566c-35.9-0.1-65-29.4-64.8-65.4c0.1-35.7,29.4-64.6,65.2-64.6c35.9,0.1,65,29.4,64.8,65.4
			C567.9,537.1,538.6,566.1,502.8,566z"/>
		<path d="M724.7,566c-35.9-0.1-64.9-29.5-64.7-65.5c0.2-35.6,29.5-64.6,65.3-64.5c35.9,0.1,64.9,29.5,64.7,65.5
			C789.8,537.2,760.5,566.1,724.7,566z"/>
	</g>
</g>
<g class="st0">
	<g class="st1">
		<path class="st5" d="M1001,1001c-333.3,0-666.7,0-1000,0C1,667.7,1,334.3,1,1c333.3,0,666.7,0,1000,0
			C1001,334.3,1001,667.7,1001,1001z M83,895.6c279,0,557.4,0,836,0c0-17.2,0-34-0.1-50.8c0-1.2-0.6-2.5-1.2-3.6
			c-3.8-6.3-7.8-12.5-11.6-18.8c-5.4-8.8-10.6-17.7-16.1-26.4c-8-12.6-16.3-25-24.3-37.7c-8.9-14.3-17.4-28.8-26.4-43.1
			c-8-12.7-16.4-25.1-24.4-37.7c-7.6-12-14.8-24.4-22.5-36.3c-1.5-2.4-4.4-4.4-7-5.4c-4.4-1.7-9.2-2.4-13.9-3.6
			c-10.4-2.7-20.7-5.6-31.1-8.3c-18.4-4.7-36.8-9.3-55.2-13.9c-8.8-2.2-17.6-4.7-26.4-6.9c-15.9-4-31.8-7.8-48.2-11.9
			c0.9-1.1,1.4-1.9,2.1-2.6c8.3-7.5,17.4-14.3,24.9-22.6c10.3-11.5,20.1-23.6,28.8-36.4c7.1-10.6,12.5-22.3,17.9-33.9
			c4.7-9.9,9.3-20.1,12.3-30.6c4.5-15.6,8.1-31.6,10.9-47.6c2.4-13.7,4-27.6,4.3-41.5c0.4-17.2-0.9-34.4-1.5-52c5.5,0,11.9,0,19.1,0
			c-5.3-21.3-10.5-42.1-15.7-63c-5.7,0-10.8-0.3-16,0.1c-3.4,0.2-4.5-1.4-5.6-4.1c-3.7-9.4-7.4-18.9-11.8-28
			c-3.9-8.1-8.4-15.9-13.3-23.4c-7.1-10.6-14.3-21.2-22.5-30.9c-7-8.3-15.1-15.6-23.3-22.7c-7.5-6.6-15.4-13-23.8-18.3
			c-14.9-9.3-30.6-16.7-47.7-21.6c-14.2-4.1-28.5-6.7-43-6.8c-11.9-0.1-23.8,1.4-35.7,2.8c-19.4,2.3-37.2,9.3-54.2,18.7
			c-5.8,3.2-11.8,6.5-17,10.6c-10.1,7.7-20,15.7-29.4,24.2c-5.8,5.2-10.7,11.3-15.7,17.2c-4.9,5.7-10.1,11.3-14.1,17.6
			c-5.9,9.1-11.5,18.6-16.4,28.3c-5.3,10.6-9.8,21.7-14.4,32.7c-1,2.4-1.9,3.8-4.9,3.7c-5.4-0.3-10.9-0.1-16.5-0.1
			c-5.3,21.2-10.4,41.9-15.7,63c7.2,0,13.6,0,19.9,0c-0.9,10.8-2.4,21.2-2.3,31.5c0,15.1,0.3,30.3,2.1,45.2c2,16.8,5.4,33.6,9,50.1
			c1.9,8.6,5.3,17,8.7,25.2c5.3,12.9,10.2,26.1,16.9,38.2c6.7,12.1,15,23.4,23.2,34.7c10.6,14.7,23.3,27.4,37.7,38.4
			c1.3,1,2.4,2.3,3.8,3.8c-9.3,2.2-17.8,4.1-26.2,6.3c-14.4,3.6-28.8,7.3-43.2,11c-13,3.3-25.9,6.5-38.9,9.9
			c-16.1,4.2-32.3,8.5-48.4,12.6c-3.2,0.8-6.5,1.1-9.6,2.1c-4.8,1.6-10,2.8-13.9,5.8c-3.4,2.7-5.3,7.5-7.7,11.4
			c-6.1,9.8-12.2,19.7-18.4,29.5c-5.9,9.5-12,18.9-17.9,28.4c-5.5,8.9-10.9,17.9-16.4,26.7c-6.3,10-12.8,19.9-19.1,29.9
			c-7.4,11.8-14.5,23.8-21.8,35.6c-7.6,12.1-15.4,24-23,36.1c-1.5,2.4-3.7,5.1-3.8,7.8C82.8,861.3,83,878.3,83,895.6z"/>
		<path d="M83,895.6c0-17.3-0.2-34.3,0.2-51.3c0.1-2.6,2.2-5.3,3.8-7.8c7.6-12.1,15.4-24,23-36.1c7.4-11.8,14.5-23.8,21.8-35.6
			c6.3-10,12.8-19.9,19.1-29.9c5.6-8.9,10.9-17.9,16.4-26.7c5.9-9.5,12-18.9,17.9-28.4c6.2-9.8,12.2-19.7,18.4-29.5
			c2.5-3.9,4.3-8.7,7.7-11.4c3.8-3,9.1-4.2,13.9-5.8c3.1-1,6.5-1.3,9.6-2.1c16.1-4.2,32.3-8.5,48.4-12.6c12.9-3.3,25.9-6.6,38.9-9.9
			c14.4-3.7,28.8-7.4,43.2-11c8.4-2.1,16.9-4,26.2-6.3c-1.4-1.4-2.5-2.7-3.8-3.8c-14.4-11-27.2-23.7-37.7-38.4
			c-8.1-11.3-16.5-22.5-23.2-34.7c-6.7-12.2-11.6-25.3-16.9-38.2c-3.4-8.2-6.8-16.6-8.7-25.2c-3.6-16.6-7-33.3-9-50.1
			c-1.8-15-2-30.2-2.1-45.2c0-10.4,1.5-20.8,2.3-31.5c-6.2,0-12.7,0-19.9,0c5.3-21.2,10.4-41.8,15.7-63c5.6,0,11-0.2,16.5,0.1
			c3,0.2,3.9-1.3,4.9-3.7c4.7-11,9.1-22.1,14.4-32.7c4.9-9.7,10.4-19.2,16.4-28.3c4.1-6.3,9.2-11.9,14.1-17.6
			c5.1-5.9,10-12,15.7-17.2c9.4-8.5,19.3-16.5,29.4-24.2c5.3-4,11.2-7.3,17-10.6c16.9-9.4,34.8-16.5,54.2-18.7
			c11.8-1.4,23.8-3,35.7-2.8c14.6,0.2,28.9,2.7,43,6.8c17,4.9,32.8,12.4,47.7,21.6c8.5,5.3,16.3,11.7,23.8,18.3
			c8.2,7.1,16.3,14.5,23.3,22.7c8.2,9.7,15.4,20.3,22.5,30.9c5,7.4,9.4,15.3,13.3,23.4c4.4,9.1,8,18.6,11.8,28
			c1.1,2.8,2.2,4.4,5.6,4.1c5.1-0.3,10.3-0.1,16-0.1c5.2,21,10.4,41.7,15.7,63c-7.2,0-13.6,0-19.1,0c0.6,17.6,1.9,34.8,1.5,52
			c-0.3,13.9-1.9,27.8-4.3,41.5c-2.8,16-6.4,32-10.9,47.6c-3,10.5-7.6,20.7-12.3,30.6c-5.5,11.6-10.8,23.4-17.9,33.9
			c-8.6,12.8-18.4,24.9-28.8,36.4c-7.4,8.3-16.5,15.1-24.9,22.6c-0.7,0.6-1.2,1.4-2.1,2.6c16.4,4,32.3,7.9,48.2,11.9
			c8.8,2.2,17.6,4.7,26.4,6.9c18.4,4.7,36.8,9.2,55.2,13.9c10.4,2.7,20.7,5.5,31.1,8.3c4.6,1.2,9.4,1.9,13.9,3.6
			c2.7,1,5.5,3.1,7,5.4c7.7,12,14.9,24.3,22.5,36.3c8,12.7,16.4,25,24.4,37.7c9,14.3,17.5,28.8,26.4,43.1
			c7.9,12.7,16.3,25.1,24.3,37.7c5.5,8.7,10.8,17.6,16.1,26.4c3.9,6.3,7.8,12.5,11.6,18.8c0.6,1.1,1.2,2.4,1.2,3.6
			c0.1,16.8,0.1,33.6,0.1,50.8C640.4,895.6,362,895.6,83,895.6z M664.5,423.3c-109.4,0-217.7,0-326.2,0c2.9,17.4,8.7,33.6,15.4,49.5
			c2.1,5,4.5,9.8,7.2,14.5c5.4,9.5,10.2,19.5,16.7,28.2c7.1,9.5,15.3,18.4,23.9,26.6c7.7,7.4,16.4,13.9,25,20.2
			c14.4,10.6,30.7,17.3,48.3,20.2c10.6,1.7,21.5,3.3,32.1,2.9c13.2-0.5,26.4-2.5,38.7-8.1c4.8-2.2,10-3.3,14.7-5.7
			c6.7-3.4,13.6-6.8,19.4-11.5c9.3-7.4,18.2-15.4,26.6-23.8c6.8-6.8,13.5-14,18.9-22c7-10.2,13.2-21.1,18.6-32.2
			c4.9-10.3,8.5-21.2,12.3-32C659.2,441.5,661.7,432.5,664.5,423.3z M666.7,324.3c-110.7,0-221.1,0-331.5,0c-1,11.7-1.9,23-2.9,34.4
			c112.8,0,224.8,0,337.3,0C668.7,347.1,667.7,335.9,666.7,324.3z M442,391c1.4-12-10.7-24.2-23.9-24c-14.8,0.2-24.9,10.4-24.8,24
			c0.1,14.9,9.1,24.2,24.6,24.8C430.8,416.3,443.2,405,442,391z M584.2,367c-13.6-0.1-23.3,10.9-24.2,21.2
			c-1.6,17.2,11,27.8,23.9,27.5c14.9-0.3,24-8.8,24.8-24.2C609.3,379.6,600.1,367.2,584.2,367z M326.3,275.2c0,11.8,0,23.2,0,34.6
			c2.9,0,5.5,0,8.4,0c0-11.6,0-23,0-34.6C331.9,275.2,329.3,275.2,326.3,275.2z M357.3,275.2c0,11.8,0,23.2,0,34.4
			c3.1,0,5.8,0,8.4,0c0-11.7,0-22.9,0-34.4C362.9,275.2,360.3,275.2,357.3,275.2z M395.7,309.8c0-11.8,0-23.2,0-34.6
			c-2.6,0-4.9,0-7.4,0c0,11.6,0,23,0,34.6C390.8,309.8,393,309.8,395.7,309.8z M426.7,309.8c0-11.8,0-23.1,0-34.4
			c-2.7,0-5.1,0-7.4,0c0,11.7,0,22.9,0,34.4C421.7,309.8,424,309.8,426.7,309.8z M450.3,275.2c0,11.8,0,23.2,0,34.6
			c2.6,0,4.9,0,7.4,0c0-11.6,0-23,0-34.6C455.2,275.2,452.9,275.2,450.3,275.2z M488.7,309.8c0-11.8,0-23.2,0-34.6
			c-2.6,0-4.9,0-7.4,0c0,11.6,0,23,0,34.6C483.8,309.8,486.1,309.8,488.7,309.8z M519.7,309.8c0-11.8,0-23.2,0-34.6
			c-2.6,0-4.9,0-7.4,0c0,11.6,0,23,0,34.6C514.8,309.8,517,309.8,519.7,309.8z M550.6,309.8c0-11.9,0-23.3,0-34.6
			c-2.7,0-4.9,0-7.3,0c0,11.7,0,23,0,34.6C545.9,309.8,548.1,309.8,550.6,309.8z M581.6,309.8c0-11.9,0-23.3,0-34.6
			c-2.7,0-4.9,0-7.3,0c0,11.7,0,23,0,34.6C576.9,309.8,579.1,309.8,581.6,309.8z M605.4,275.2c0,11.9,0,23.3,0,34.6
			c2.7,0,4.9,0,7.3,0c0-11.7,0-23,0-34.6C610.1,275.2,607.8,275.2,605.4,275.2z M636.3,275.2c0,11.8,0,23.1,0,34.4
			c2.7,0,5.1,0,7.4,0c0-11.7,0-22.9,0-34.4C641.2,275.2,639,275.2,636.3,275.2z M667.4,275.2c0,11.9,0,23.3,0,34.6
			c2.7,0,4.9,0,7.3,0c0-11.7,0-23,0-34.6C672.1,275.2,669.8,275.2,667.4,275.2z"/>
		<path class="st5" d="M664.5,423.3c-2.8,9.2-5.3,18.2-8.3,27c-3.8,10.8-7.4,21.7-12.3,32c-5.4,11.2-11.6,22-18.6,32.2
			c-5.4,7.9-12.1,15.2-18.9,22c-8.4,8.4-17.3,16.4-26.6,23.8c-5.9,4.6-12.7,8.1-19.4,11.5c-4.7,2.4-9.9,3.6-14.7,5.7
			c-12.3,5.6-25.5,7.6-38.7,8.1c-10.7,0.4-21.5-1.2-32.1-2.9c-17.6-2.9-33.9-9.6-48.3-20.2c-8.7-6.3-17.3-12.8-25-20.2
			c-8.6-8.2-16.8-17.1-23.9-26.6c-6.5-8.7-11.3-18.7-16.7-28.2c-2.6-4.7-5-9.6-7.2-14.5c-6.7-15.9-12.5-32.1-15.4-49.5
			C446.8,423.3,555.1,423.3,664.5,423.3z"/>
		<path class="st5" d="M666.7,324.3c1,11.6,2,22.8,2.9,34.4c-112.5,0-224.5,0-337.3,0c1-11.4,1.9-22.7,2.9-34.4
			C445.7,324.3,556,324.3,666.7,324.3z"/>
		<path class="st5" d="M442,391c1.2,14-11.2,25.3-24.1,24.8c-15.4-0.6-24.5-10-24.6-24.8c-0.1-13.6,10-23.7,24.8-24
			C431.3,366.8,443.4,379.1,442,391z"/>
		<path class="st5" d="M584.2,367c16,0.2,25.1,12.6,24.5,24.6c-0.8,15.3-9.9,23.8-24.8,24.2c-12.9,0.3-25.6-10.3-23.9-27.5
			C560.9,378,570.6,366.9,584.2,367z"/>
		<path class="st5" d="M326.3,275.2c3,0,5.6,0,8.4,0c0,11.6,0,23,0,34.6c-2.9,0-5.5,0-8.4,0C326.3,298.4,326.3,287,326.3,275.2z"/>
		<path class="st5" d="M357.3,275.2c3,0,5.6,0,8.4,0c0,11.5,0,22.7,0,34.4c-2.6,0-5.4,0-8.4,0C357.3,298.4,357.3,287,357.3,275.2z"
			/>
		<path class="st5" d="M395.7,309.8c-2.6,0-4.9,0-7.4,0c0-11.6,0-23,0-34.6c2.5,0,4.8,0,7.4,0C395.7,286.6,395.7,298,395.7,309.8z"
			/>
		<path class="st5" d="M426.7,309.8c-2.7,0-4.9,0-7.4,0c0-11.5,0-22.7,0-34.4c2.3,0,4.7,0,7.4,0C426.7,286.6,426.7,298,426.7,309.8z
			"/>
		<path class="st5" d="M450.3,275.2c2.6,0,4.9,0,7.4,0c0,11.6,0,23,0,34.6c-2.5,0-4.8,0-7.4,0C450.3,298.4,450.3,287,450.3,275.2z"
			/>
		<path class="st5" d="M488.7,309.8c-2.6,0-4.9,0-7.4,0c0-11.6,0-23,0-34.6c2.5,0,4.8,0,7.4,0C488.7,286.6,488.7,298,488.7,309.8z"
			/>
		<path class="st5" d="M519.7,309.8c-2.6,0-4.9,0-7.4,0c0-11.6,0-23,0-34.6c2.5,0,4.8,0,7.4,0C519.7,286.6,519.7,298,519.7,309.8z"
			/>
		<path class="st5" d="M550.6,309.8c-2.5,0-4.7,0-7.3,0c0-11.5,0-22.9,0-34.6c2.4,0,4.6,0,7.3,0
			C550.6,286.5,550.6,297.9,550.6,309.8z"/>
		<path class="st5" d="M581.6,309.8c-2.5,0-4.7,0-7.3,0c0-11.5,0-22.9,0-34.6c2.4,0,4.6,0,7.3,0
			C581.6,286.5,581.6,297.9,581.6,309.8z"/>
		<path class="st5" d="M605.4,275.2c2.5,0,4.7,0,7.3,0c0,11.5,0,22.9,0,34.6c-2.4,0-4.6,0-7.3,0
			C605.4,298.5,605.4,287.1,605.4,275.2z"/>
		<path class="st5" d="M636.3,275.2c2.7,0,4.9,0,7.4,0c0,11.5,0,22.7,0,34.4c-2.3,0-4.7,0-7.4,0C636.3,298.4,636.3,287,636.3,275.2z
			"/>
		<path class="st5" d="M667.4,275.2c2.5,0,4.7,0,7.3,0c0,11.5,0,22.9,0,34.6c-2.4,0-4.6,0-7.3,0
			C667.4,298.5,667.4,287.1,667.4,275.2z"/>
	</g>
</g>
<g>
	<g>
		<path class="st5" d="M1,1001C1,667.7,1,334.3,1,1c333.3,0,666.7,0,1000,0c0,333.3,0,666.7,0,1000C667.7,1001,334.3,1001,1,1001z
			 M910.5,479.5c-4-90.8-46.3-186.1-130.4-261.5c-84.7-76-185.1-108.9-297.9-98.5c-112.6,10.4-204.5,61.9-274,151.3
			c-64.2,82.7-90.5,177.4-79.8,281c10.9,105.5,58.1,193.4,139.5,261.2c84.6,70.4,183,99.3,292.4,88.8
			C742.7,884.5,915.9,724.5,910.5,479.5z"/>
		<path d="M910.5,479.5c5.4,244.9-167.8,405-350.1,422.4c-109.5,10.5-207.9-18.4-292.4-88.8c-81.5-67.9-128.7-155.8-139.5-261.2
			c-10.7-103.7,15.6-198.4,79.8-281c69.4-89.4,161.4-141,274-151.3C595,109.1,695.4,142,780.1,218
			C864.1,293.4,906.5,388.7,910.5,479.5z M524.7,469.2c0.1-0.8,0.2-1.6,0.3-2.4c1.6-21.7,3.2-43.5,4.9-65.2
			c2-25.4,3.8-50.8,6.2-76.2c0.7-7.1,5.3-13.1,11.5-16.3c17.7-9.1,36.2,5.4,35.1,24.3c-2.4,39.6-4.8,79.1-7.2,118.7
			c-0.1,2.1-0.4,4.7,0.6,6.3c1.5,2.5,4.1,4.3,6.2,6.4c1.9-2.2,5.1-4.2,5.5-6.7c2.1-12.5,3.7-25,5-37.6c1.8-17.4,3-34.8,4.6-52.2
			c1.4-15.2,3-30.5,4.6-45.7c0.9-8.3,1.9-16.6,3.1-24.8c0.3-2.4,1.2-4.8,2.4-6.9c5.2-9.9,13.6-13.2,24.5-12.2
			c12.3,1.1,22.3,10.6,22.5,22.7c0.1,5.1-0.2,10.3-0.7,15.5c-2.1,20-4.6,40-6.7,60c-2.5,23.5-4.6,47-7.1,70.5
			c-0.9,8.3-2.3,16.5-3.2,24.8c-0.5,4.7,2.7,9.2,6.1,9.6c3.5,0.4,8.1-3.4,8.9-7.9c0.9-5.1,1.6-10.2,2.1-15.3
			c3-28.1,5.9-56.2,8.9-84.3c1.4-12.9,2.8-25.8,4.3-38.7c0.9-7.4,3.7-13.7,10.4-18c10.2-6.5,20-4.3,29.7,0.8
			c6.3,3.3,11.4,12.8,10.1,19.4c-1.7,9.1-2.4,18.5-3.6,27.7c-2.6,20.1-5.1,40.2-7.9,60.3c-3.4,24.4-6.9,48.7-10.5,73
			c-0.5,3.3,0,6.8,3.3,7.3c2.2,0.3,5.9-1.9,7.1-4c3.1-5.7,5.4-12,7.8-18.1c5.7-14.4,11.4-28.8,17-43.2c2-5,3.4-10.3,5.7-15.2
			c2.7-5.8,3.4-13,9.7-16.7c7.7-4.6,16.7-4.1,23.4,1.2c7.2,5.6,9.6,15.5,6.6,23.2c-4.9,12.9-9.6,25.9-14.7,38.8
			c-7.3,18.7-14.8,37.3-22.2,56c-6,15.2-12.2,30.2-17.8,45.5c-3,8.4-5.2,17.1-7.2,25.9c-3.4,14.8-6.4,29.8-9.3,44.7
			c-0.3,1.8,0.2,4.4,1.4,5.6c9.1,9.2,18.5,18.1,27.7,27.3c6.6,6.5,13,13.2,19.3,19.9c2.9,3.1,4.8,3.3,7.3-0.3
			c3.7-5.2,7.1-10.6,10.8-15.7c10.5-14.7,18.9-30.6,26.2-47.2c7.2-16.2,12.6-32.9,17-50c5.5-21.7,8.2-43.7,8.7-66.1
			c0.7-32.4-2.9-64-12.7-94.9c-1.4-4.6-2.7-9.2-4.5-13.6c-4.9-12-9.5-24.1-15.2-35.8c-4.6-9.4-10.5-18.2-15.7-27.3
			c-8.8-15.3-19.7-28.9-31.9-41.6c-10.4-10.8-21.4-21-32.9-30.6c-10.6-8.8-21.8-17.2-33.6-24.4c-12.1-7.4-25-13.5-37.9-19.5
			c-9.1-4.2-18.5-8.1-28.2-10.7c-14.5-4-29.2-7-44-10.1c-26-5.4-52.4-4.3-78.6-2.5c-13.5,1-27,3.8-40.2,7.2
			c-15.3,3.9-30.6,8.5-45.3,14.1c-11.4,4.4-22.4,10.3-33,16.6c-13.9,8.3-27.2,17.6-40.6,26.6c-0.5,0.4-0.4,3,0.3,3.8
			c6.7,6.8,13.6,13.5,20.3,20.2c18.9,19,37.8,38.1,56.8,57c14,13.9,28.3,27.6,42.4,41.5c13,12.7,25.8,25.6,38.7,38.4
			C499.9,444.6,512.2,456.8,524.7,469.2z M397.1,500c-1.6-2.8-3.6-4.8-3.9-7c-1.9-12.8-6.4-24.5-13.1-35.5
			c-6.1-10.1-14.5-17.6-25.3-21.9c-14.6-5.9-29.6-2.9-44.1,0.6c-11,2.6-20.9,8.1-28.7,16.4c-5.9,6.3-11.6,12.9-11.9,22.6
			c-0.4,10.5-1.5,20.9-2.7,31.4c-0.3,2.2-2.1,4.4-3.6,6.4c-1.7,2.4-4.5,4.2-5.6,6.7c-3.4,7.8-3.8,16.1-2.2,24.5
			c1.9,10.4,3.8,12.1,14.1,13.2c0.3,0,0.5,0.4,1,0.8c1.3,13.6,2.7,27.4,4.1,41.7c-16.3,0-31.8,0-47.9,0c0.9,3.2,1.4,5.9,2.3,8.5
			c2.3,6,4.5,12.1,7.3,17.9c7.3,15.2,13.9,30.9,22.5,45.4c7.8,13,17.2,25.1,27.1,36.7c9.6,11.3,20.5,21.4,31,31.9
			c1.1,1.1,3.9,1.4,5.4,0.9c1.8-0.6,3.2-2.6,4.7-4c10.9-9.7,21.4-19.9,32.8-29c15.8-12.6,32.1-24.5,48.4-36.3
			c3.1-2.3,7.4-4.2,11.1-4.3c8.8-0.3,17.7,0.1,26.4,1.3c15,2,29.9,4.8,44.8,7.2c0.5,0.1,1.2-0.2,2-0.4c-2-6.4-3.1-13-6-18.6
			c-5.6-10.6-12.4-20.5-18.3-30.9c-4-7.1-7.6-14.4-11.1-21.8c-3-6.4-4.5-7.7-11.7-7.7c-18.7,0-37.3,0.3-56-0.2
			c-5.4-0.1-7.4,2.4-9.8,6.4c-3.7,6.2-7.4,12.4-12.2,17.7c-10.5,11.7-24.6,15.7-39.8,16.5c-2.3,0.1-4.5,0-7.2,0
			c0.3-3.2,0.5-5.8,0.7-8.3c3.9-0.2,7.3-0.1,10.6-0.7c5.7-1.1,11.8-1.6,16.8-4.2c16.3-8.3,26.1-22.7,29.4-39.9
			c3.5-17.9,3.9-36.3,5.3-54.6c0.5-6.9,0.1-13.9,0.1-21.3c-30.4,0-60.2,0-89.9,0c0-2.8,0-5.1,0-7.9C328.3,500,362.4,500,397.1,500z
			 M663.2,700.5c-3.6,3.2-6.4,6.4-9.9,8.7c-8.4,5.5-16.5,12.2-25.8,15.3c-20.1,6.7-40.8,3.7-61.1-0.3c-8.7-1.7-17-5.2-25.6-7.8
			c-16.1-4.9-28.2-15.3-39.1-27.6c-1.2-1.3-3-2.4-4.8-2.8c-9.8-1.9-19.6-3.9-29.4-5.1c-14.8-1.9-29.7-3.5-44.6-4.8
			c-3.2-0.3-7.1,0.9-9.7,2.7c-16.1,12-32,24.1-47.6,36.6c-12.5,10-24.5,20.6-36.6,31c-0.6,0.5-0.3,2.9,0.4,3.6c2.3,2.2,5,4.2,7.7,6
			c12.2,8,24.1,16.7,36.9,23.7c17.6,9.7,36,18.1,55.7,23c14.9,3.7,29.9,7,45,10.3c5.2,1.1,10.5,1.9,15.8,2c17.8,0.2,35.6,0.5,53.4,0
			c20-0.6,39.5-4.8,58.6-10.4c10-2.9,19.9-6.3,29.4-10.3c11.9-5.1,23.7-10.8,35.1-16.8c7.9-4.2,15.4-9.3,22.9-14.2
			c6.5-4.3,12.9-9,19.2-13.7c0.5-0.3,0.1-2.7-0.6-3.4c-6.6-6.7-13.5-13.3-20.2-20C680,717.6,671.7,709.1,663.2,700.5z M263.2,565.7
			c-0.4,0.2-0.9,0.4-1.3,0.6c-3-2.4-6.6-4.4-8.8-7.4c-7.6-10-7.3-21.8-5.5-33.3c0.7-4.7,2.6-10,5.8-13.3c5.7-6,6.3-13,6.7-20.3
			c0.3-5.2,1.3-10.3,1.3-15.4c0.1-14.6,8.2-24.8,18.4-33.5c12.6-10.8,27.7-16.1,44.2-18.1c10.8-1.3,21.4-1.5,31.5,1.9
			c14.3,4.8,25.2,14.7,32.8,27.5c6.3,10.5,10.3,22.1,12.7,34.2c0.7,3.6,2.1,6.5,6,7.8c1.2,0.4,2.4,2.4,2.6,3.8
			c0.4,2.5,0.1,5.2,0.1,8.2c-5.9,0-11.2,0-15.7,0c-2,26.8-4.1,53.1-6.1,79.4c19.8,0,40.5,0,61.7,0c-2.2-3.5-3.9-6.6-5.9-9.5
			c-10.9-14.7-22.1-29.2-32.6-44.1c-8.5-12-4.7-24.5,9.1-30.4c13.9-5.9,34.7-1.3,45.9,12.7c3.9,4.8,7.8,9.7,11.5,14.7
			c8.6,11.7,16.9,23.5,25.4,35.3c2.2,3,4.1,7.9,8.3,6.4c2.8-1,4.7-5.3,6.5-8.3c0.9-1.5,0.8-3.5,0.9-5.4c0-0.9-0.3-2-0.9-2.6
			c-9.1-9-18.4-17.9-27.5-26.9c-8-7.9-15.7-16-23.6-23.9c-7.7-7.8-15.5-15.6-23.4-23.3c-6.7-6.6-13.6-12.9-20.2-19.5
			c-7.6-7.6-15-15.5-22.6-23.1c-9.8-9.8-19.9-19.4-29.8-29.2c-7.6-7.5-15-15.3-22.6-22.8c-6.7-6.6-13.5-13-20.2-19.7
			c-6.4-6.4-12.7-13-19.1-19.4c-6.6-6.6-13.7-12.7-19.9-19.6c-7.9-8.9-7.6-9.1-15.1-0.1c-0.2,0.3-0.4,0.5-0.6,0.8
			c-6.4,9.5-13.5,18.6-19,28.6c-7.1,13.1-13.3,26.7-19.1,40.4c-4.3,10.3-8.1,21-10.9,31.8c-5.6,21.2-10,42.7-9.9,64.8
			c0.1,17.6,0,35.3,1.6,52.9c1.3,14.4,5,28.6,7.6,42.8c14.6,0,28.1,0,42,0C264.9,582.2,264.1,573.9,263.2,565.7z"/>
		<path class="st5" d="M524.7,469.2c-12.5-12.4-24.8-24.6-37.1-36.8c-12.9-12.8-25.7-25.6-38.7-38.4c-14.1-13.9-28.4-27.5-42.4-41.5
			c-19-18.9-37.8-38-56.8-57c-6.7-6.8-13.6-13.4-20.3-20.2c-0.7-0.7-0.9-3.4-0.3-3.8c13.4-9,26.7-18.3,40.6-26.6
			c10.6-6.3,21.5-12.3,33-16.6c14.8-5.7,30-10.3,45.3-14.1c13.2-3.3,26.7-6.2,40.2-7.2c26.2-1.9,52.6-2.9,78.6,2.5
			c14.7,3,29.5,6.1,44,10.1c9.7,2.7,19.1,6.5,28.2,10.7c12.9,6,25.8,12.1,37.9,19.5c11.8,7.2,23,15.5,33.6,24.4
			c11.5,9.6,22.5,19.8,32.9,30.6c12.1,12.6,23.1,26.3,31.9,41.6c5.2,9.1,11.2,17.9,15.7,27.3c5.6,11.6,10.3,23.8,15.2,35.8
			c1.8,4.4,3,9.1,4.5,13.6c9.8,30.9,13.4,62.5,12.7,94.9c-0.5,22.4-3.2,44.3-8.7,66.1c-4.3,17.2-9.8,33.8-17,50
			c-7.3,16.6-15.7,32.4-26.2,47.2c-3.7,5.2-7.1,10.6-10.8,15.7c-2.6,3.6-4.4,3.4-7.3,0.3c-6.3-6.7-12.8-13.4-19.3-19.9
			c-9.2-9.1-18.6-18-27.7-27.3c-1.2-1.2-1.8-3.9-1.4-5.6c2.9-14.9,5.9-29.9,9.3-44.7c2-8.7,4.1-17.5,7.2-25.9
			c5.6-15.3,11.8-30.4,17.8-45.5c7.4-18.7,14.9-37.3,22.2-56c5-12.9,9.8-25.9,14.7-38.8c2.9-7.7,0.5-17.6-6.6-23.2
			c-6.7-5.2-15.7-5.7-23.4-1.2c-6.2,3.7-6.9,10.9-9.7,16.7c-2.3,4.9-3.7,10.2-5.7,15.2c-5.6,14.4-11.3,28.8-17,43.2
			c-2.4,6.1-4.7,12.4-7.8,18.1c-1.1,2.1-4.9,4.3-7.1,4c-3.2-0.4-3.7-3.9-3.3-7.3c3.6-24.3,7.1-48.7,10.5-73
			c2.8-20.1,5.3-40.2,7.9-60.3c1.2-9.2,1.9-18.6,3.6-27.7c1.2-6.7-3.8-16.1-10.1-19.4c-9.6-5.1-19.5-7.4-29.7-0.8
			c-6.7,4.3-9.5,10.5-10.4,18c-1.5,12.9-3,25.8-4.3,38.7c-3,28.1-5.9,56.2-8.9,84.3c-0.5,5.1-1.2,10.3-2.1,15.3
			c-0.8,4.6-5.3,8.4-8.9,7.9c-3.3-0.4-6.5-4.9-6.1-9.6c0.8-8.3,2.3-16.5,3.2-24.8c2.4-23.5,4.6-47,7.1-70.5c2.1-20,4.5-40,6.7-60
			c0.5-5.1,0.8-10.3,0.7-15.5c-0.2-12.1-10.2-21.6-22.5-22.7c-10.9-0.9-19.3,2.3-24.5,12.2c-1.1,2.1-2,4.5-2.4,6.9
			c-1.2,8.2-2.2,16.5-3.1,24.8c-1.6,15.2-3.2,30.5-4.6,45.7c-1.6,17.4-2.8,34.8-4.6,52.2c-1.3,12.6-2.9,25.1-5,37.6
			c-0.4,2.5-3.6,4.5-5.5,6.7c-2.1-2.1-4.7-3.9-6.2-6.4c-1-1.6-0.7-4.2-0.6-6.3c2.4-39.6,4.8-79.1,7.2-118.7
			c1.1-18.9-17.4-33.3-35.1-24.3c-6.2,3.2-10.9,9.1-11.5,16.3c-2.4,25.4-4.2,50.8-6.2,76.2c-1.7,21.7-3.3,43.5-4.9,65.2
			C524.9,467.6,524.8,468.4,524.7,469.2z"/>
		<path class="st5" d="M397.1,500c-34.7,0-68.8,0-103,0c0,2.8,0,5.1,0,7.9c29.8,0,59.5,0,89.9,0c0,7.5,0.4,14.4-0.1,21.3
			c-1.4,18.2-1.8,36.7-5.3,54.6c-3.3,17.2-13.2,31.6-29.4,39.9c-5,2.6-11.1,3.1-16.8,4.2c-3.2,0.6-6.6,0.5-10.6,0.7
			c-0.2,2.5-0.4,5.1-0.7,8.3c2.7,0,5,0.1,7.2,0c15.2-0.8,29.3-4.9,39.8-16.5c4.8-5.3,8.5-11.6,12.2-17.7c2.4-4,4.4-6.5,9.8-6.4
			c18.7,0.4,37.3,0.2,56,0.2c7.2,0,8.7,1.2,11.7,7.7c3.4,7.4,7,14.7,11.1,21.8c5.9,10.4,12.7,20.3,18.3,30.9c2.9,5.6,4,12.2,6,18.6
			c-0.8,0.2-1.4,0.5-2,0.4c-14.9-2.4-29.8-5.2-44.8-7.2c-8.7-1.2-17.6-1.5-26.4-1.3c-3.8,0.1-8,2-11.1,4.3
			c-16.3,11.9-32.6,23.7-48.4,36.3c-11.4,9.1-21.9,19.3-32.8,29c-1.6,1.4-2.9,3.4-4.7,4c-1.6,0.5-4.3,0.2-5.4-0.9
			c-10.5-10.4-21.5-20.6-31-31.9c-9.8-11.6-19.3-23.7-27.1-36.7c-8.6-14.5-15.3-30.1-22.5-45.4c-2.8-5.8-5-11.9-7.3-17.9
			c-1-2.6-1.5-5.3-2.3-8.5c16.2,0,31.6,0,47.9,0c-1.4-14.3-2.7-28.1-4.1-41.7c-0.5-0.4-0.8-0.8-1-0.8c-10.3-1.2-12.2-2.9-14.1-13.2
			c-1.5-8.3-1.1-16.6,2.2-24.5c1.1-2.6,3.9-4.4,5.6-6.7c1.4-2,3.3-4.2,3.6-6.4c1.2-10.4,2.3-20.9,2.7-31.4c0.4-9.6,6-16.3,11.9-22.6
			c7.8-8.3,17.7-13.7,28.7-16.4c14.5-3.5,29.4-6.4,44.1-0.6c10.8,4.3,19.2,11.8,25.3,21.9c6.6,11,11.2,22.7,13.1,35.5
			C393.5,495.2,395.5,497.2,397.1,500z M343.7,556c-9-1.3-16.3,6.4-19.3,12.8c-6.1,13.1-4.7,25.6,3.7,37.5c4.8,6.8,19,9.5,25.6,4.6
			c11.6-8.5,15.6-24.3,11.2-36.8C360.4,561.7,353.6,556,343.7,556z"/>
		<path class="st5" d="M663.2,700.5c8.5,8.6,16.8,17.1,25.2,25.5c6.7,6.7,13.6,13.2,20.2,20c0.7,0.7,1,3.1,0.6,3.4
			c-6.3,4.7-12.6,9.3-19.2,13.7c-7.5,5-15,10.1-22.9,14.2c-11.5,6-23.2,11.7-35.1,16.8c-9.6,4.1-19.5,7.4-29.4,10.3
			c-19.1,5.6-38.6,9.9-58.6,10.4c-17.8,0.5-35.6,0.3-53.4,0c-5.3-0.1-10.6-0.9-15.8-2c-15-3.2-30-6.6-45-10.3
			c-19.7-4.9-38-13.3-55.7-23c-12.8-7-24.6-15.7-36.9-23.7c-2.7-1.8-5.3-3.8-7.7-6c-0.7-0.7-0.9-3.1-0.4-3.6
			c12.1-10.5,24.1-21,36.6-31c15.6-12.5,31.6-24.6,47.6-36.6c2.5-1.9,6.5-3,9.7-2.7c14.9,1.2,29.8,2.8,44.6,4.8
			c9.9,1.3,19.7,3.3,29.4,5.1c1.7,0.3,3.6,1.5,4.8,2.8c10.9,12.3,23,22.7,39.1,27.6c8.5,2.6,16.9,6.1,25.6,7.8c20.3,4,41,7,61.1,0.3
			c9.3-3.1,17.4-9.8,25.8-15.3C656.8,706.9,659.6,703.7,663.2,700.5z"/>
		<path class="st5" d="M263.2,565.7c0.8,8.3,1.6,16.5,2.5,25.1c-13.8,0-27.4,0-42,0c-2.6-14.2-6.3-28.4-7.6-42.8
			c-1.6-17.5-1.5-35.2-1.6-52.9c-0.1-22.1,4.3-43.6,9.9-64.8c2.8-10.8,6.6-21.5,10.9-31.8c5.8-13.7,12-27.3,19.1-40.4
			c5.4-10,12.6-19.1,19-28.6c0.2-0.3,0.4-0.5,0.6-0.8c7.5-9,7.2-8.7,15.1,0.1c6.2,6.9,13.3,13.1,19.9,19.6
			c6.4,6.4,12.7,13,19.1,19.4c6.7,6.6,13.5,13,20.2,19.7c7.6,7.5,15,15.3,22.6,22.8c9.9,9.8,19.9,19.4,29.8,29.2
			c7.6,7.6,15,15.5,22.6,23.1c6.6,6.6,13.5,13,20.2,19.5c7.8,7.7,15.6,15.5,23.4,23.3c7.9,7.9,15.6,16,23.6,23.9
			c9.1,9,18.4,17.9,27.5,26.9c0.6,0.6,0.9,1.7,0.9,2.6c-0.1,1.8,0,3.9-0.9,5.4c-1.8,3.1-3.7,7.3-6.5,8.3c-4.2,1.5-6.1-3.4-8.3-6.4
			c-8.5-11.7-16.9-23.6-25.4-35.3c-3.7-5-7.6-9.8-11.5-14.7c-11.2-13.9-32-18.6-45.9-12.7c-13.8,5.9-17.6,18.4-9.1,30.4
			c10.5,14.9,21.8,29.4,32.6,44.1c2.1,2.8,3.8,6,5.9,9.5c-21.2,0-41.9,0-61.7,0c2-26.3,4-52.6,6.1-79.4c4.5,0,9.8,0,15.7,0
			c0-3,0.3-5.7-0.1-8.2c-0.2-1.4-1.4-3.4-2.6-3.8c-3.9-1.3-5.3-4.2-6-7.8c-2.5-12-6.4-23.7-12.7-34.2c-7.7-12.8-18.5-22.7-32.8-27.5
			c-10.2-3.4-20.8-3.2-31.5-1.9c-16.6,2-31.6,7.3-44.2,18.1c-10.1,8.7-18.3,19-18.4,33.5c0,5.1-1,10.3-1.3,15.4
			c-0.5,7.4-1,14.3-6.7,20.3c-3.2,3.3-5.1,8.6-5.8,13.3c-1.8,11.6-2.1,23.3,5.5,33.3c2.2,3,5.8,4.9,8.8,7.4
			C262.4,566.1,262.8,565.9,263.2,565.7z"/>
		<path d="M343.7,556c10,0,16.7,5.7,21.1,18.1c4.4,12.6,0.4,28.3-11.2,36.8c-6.6,4.9-20.8,2.2-25.6-4.6c-8.3-11.9-9.8-24.4-3.7-37.5
			C327.4,562.4,334.7,554.7,343.7,556z M359.1,584.9c-1.8-4.8-3.3-9-5-13c-2-4.8-5.7-7.2-11-7.2c-5.4,0-8.7,3.2-10.8,7.3
			c-4.3,8.3-4.6,17.2,0,25.3c4.6,8,13.5,11.6,20.5,2.4C355.9,595.5,357,589.9,359.1,584.9z"/>
		<path class="st5" d="M359.1,584.9c-2.1,5-3.3,10.6-6.4,14.8c-7,9.2-15.9,5.6-20.5-2.4c-4.6-8.1-4.3-17,0-25.3
			c2.1-4.1,5.4-7.3,10.8-7.3c5.4,0,9,2.4,11,7.2C355.8,575.9,357.3,580,359.1,584.9z"/>
	</g>
</g>
</svg>
